HIERARCHY
ROOT Hips
{
	OFFSET -3.958830 18.904000 13.208200
	CHANNELS 6 Xposition Yposition Zposition Zrotation Yrotation Xrotation 
	JOINT LHipJoint
	{
		OFFSET 0.000000 0.000000 0.000000
		CHANNELS 3 Zrotation Yrotation Xrotation
		JOINT LeftUpLeg
		{
			OFFSET 1.800000 -1.400000 0.085000
			CHANNELS 3 Zrotation Yrotation Xrotation
			JOINT LeftLeg
			{
				OFFSET 2.215000 -6.000000 0.000000
				CHANNELS 3 Zrotation Yrotation Xrotation
				JOINT LeftFoot
				{
					OFFSET 2.500000 -6.900000 0.000000
					CHANNELS 3 Zrotation Yrotation Xrotation
					JOINT LeftToeBase
					{
						OFFSET 0.200000 -0.500000 1.950000
						CHANNELS 3 Zrotation Yrotation Xrotation
						End Site
						{
							OFFSET 0.000000 0.000000 0.000000
						}
					}
				}
			}
		}
	}
	JOINT RHipJoint
	{
		OFFSET 0.000000 0.000000 0.000000
		CHANNELS 3 Zrotation Yrotation Xrotation
		JOINT RightUpLeg
		{
			OFFSET -1.800000 -1.400000 0.085000
			CHANNELS 3 Zrotation Yrotation Xrotation
			JOINT RightLeg
			{
				OFFSET -2.215000 -6.000000 0.000000
				CHANNELS 3 Zrotation Yrotation Xrotation
				JOINT RightFoot
				{
					OFFSET -2.500000 -6.900000 0.000000
					CHANNELS 3 Zrotation Yrotation Xrotation
					JOINT RightToeBase
					{
						OFFSET -0.200000 -0.500000 1.950000
						CHANNELS 3 Zrotation Yrotation Xrotation
						End Site
						{
							OFFSET 0.000000 0.000000 0.000000
						}
					}
				}
			}
		}
	}
	JOINT LowerBack
	{
		OFFSET 0.000000 0.000000 0.000000
		CHANNELS 3 Zrotation Yrotation Xrotation
		JOINT Spine
		{
			OFFSET -0.087000 1.940000 -0.288900
			CHANNELS 3 Zrotation Yrotation Xrotation
			JOINT Spine1
			{
				OFFSET 0.000000 1.950000 0.060000
				CHANNELS 3 Zrotation Yrotation Xrotation
				JOINT Neck
				{
					OFFSET 0.000000 0.000000 0.000000
					CHANNELS 3 Zrotation Yrotation Xrotation
					JOINT Neck1
					{
						OFFSET 0.000000 1.600000 0.340000
						CHANNELS 3 Zrotation Yrotation Xrotation
						JOINT Head
						{
							OFFSET 0.000000 1.667000 -0.240000
							CHANNELS 3 Zrotation Yrotation Xrotation
							End Site
							{
								OFFSET 0.000000 0.000000 0.000000
							}
						}
					}
				}
				JOINT LeftShoulder
				{
					OFFSET 0.000000 0.000000 0.000000
					CHANNELS 3 Zrotation Yrotation Xrotation
					JOINT LeftArm
					{
						OFFSET 2.700000 1.550000 -0.730000
						CHANNELS 3 Zrotation Yrotation Xrotation
						JOINT LeftForeArm
						{
							OFFSET 5.450000 0.000000 0.000000
							CHANNELS 3 Zrotation Yrotation Xrotation
							JOINT LeftHand
							{
								OFFSET 3.450000 0.000000 0.000000
								CHANNELS 3 Zrotation Yrotation Xrotation
								JOINT LeftHandIndex1
								{
									OFFSET 0.750000 0.000000 0.000000
									CHANNELS 3 Zrotation Yrotation Xrotation
									End Site
									{
										OFFSET 0.000000 0.000000 0.000000
									}
								}
							}
						}
					}
				}
				JOINT RightShoulder
				{
					OFFSET 0.000000 0.000000 0.000000
					CHANNELS 3 Zrotation Yrotation Xrotation
					JOINT RightArm
					{
						OFFSET -2.700000 1.550000 -0.730000
						CHANNELS 3 Zrotation Yrotation Xrotation
						JOINT RightForeArm
						{
							OFFSET -5.450000 0.000000 0.000000
							CHANNELS 3 Zrotation Yrotation Xrotation
							JOINT RightHand
							{
								OFFSET -3.450000 0.000000 0.000000
								CHANNELS 3 Zrotation Yrotation Xrotation
								JOINT RightHandIndex1
								{
									OFFSET -0.750000 0.000000 0.000000
									CHANNELS 3 Zrotation Yrotation Xrotation
									End Site
									{
										OFFSET 0.000000 0.000000 0.000000
									}
								}
							}
						}
					}
				}
			}
		}
	}
}
MOTION
Frames: 12
Frame Time: 0.016667
-0.305230 17.438640 -2.974010 -2.382779 -6.124165 -1.451326 -14.752802 12.273376 3.360703 -0.214166 -1.744665 -9.630421 -7.454103 3.158707 -2.806177 0.012088 3.064497 3.690942 0.116840 0.021870 -0.148780 18.710718 -11.424188 2.909628 -2.923930 -1.211198 0.855913 5.909090 -5.169661 9.635969 -0.245452 -4.438933 3.073163 0.031540 0.399920 -0.040970 -4.756094 0.661314 -7.469747 19.645325 0.681581 5.534646 -15.466725 3.337705 10.548304 11.713503 -14.252812 -15.109678 -26.966090 10.539279 33.294204 5.481010 -3.726530 2.741180 -18.309573 -6.218343 3.934810 -66.495153 -2.054097 -6.040932 5.176238 -18.735340 -2.868851 -3.713408 3.065894 -0.014840 0.114480 -0.288330 0.194410 -3.752904 23.807779 10.501931 4.222665 15.670381 -11.718658 -84.306731 33.185455 -33.892979 2.413181 -1.780421 -0.087730 0.168450 0.012060 0.127330 
-0.299000 17.440580 -2.970560 -2.600675 -5.938176 -1.364472 -14.756820 12.317511 3.371418 -0.013408 -1.763002 -9.782213 -7.534759 3.177903 -2.764606 0.017795 3.064906 3.683587 0.118690 0.019620 -0.146190 18.700952 -11.387382 2.929850 -2.636030 -1.242207 0.935177 5.856240 -5.122574 9.454319 -0.245333 -4.412449 3.080422 0.026930 0.388020 -0.042580 -4.735710 0.541880 -7.500900 20.289681 0.447455 5.778872 -16.109915 3.295692 9.722892 12.151425 -14.563418 -15.102165 -27.710490 10.735096 33.184345 5.535950 -3.788880 2.706600 -18.181943 -4.983337 3.496423 -66.623679 -1.485011 -6.246901 4.993620 -18.975698 -2.881519 -3.707144 3.061672 -0.010420 0.103550 -0.285230 0.190270 -4.875524 23.018904 10.379341 3.015132 15.191095 -11.387313 -81.616959 33.549929 -32.072737 2.429485 -1.791739 -0.083100 0.159590 0.011180 0.125600 
-0.288440 17.436990 -2.969630 -2.778561 -5.598146 -1.334416 -14.769477 12.397472 3.397946 0.146543 -1.777963 -9.914710 -7.613102 3.201833 -2.780629 0.029048 3.078842 3.682452 0.103620 -0.001430 -0.161230 18.676814 -11.331465 2.946971 -2.434401 -1.240823 0.985796 5.892844 -5.105595 9.382668 -0.241070 -4.383613 3.096272 0.009980 0.392350 -0.047180 -4.684018 0.321451 -7.565512 21.177076 0.036144 6.272395 -17.433629 3.292267 8.681445 13.018548 -14.893678 -15.315823 -28.592063 10.772981 33.083299 5.677850 -4.135160 2.803930 -17.757980 -3.432951 2.875914 -66.766372 -0.799289 -6.562530 5.118507 -19.237081 -2.946545 -3.705290 3.043343 -0.002170 0.096200 -0.286940 0.190430 -7.148372 22.189767 10.403195 1.154294 14.103089 -11.224445 -76.674012 33.236952 -28.500945 2.481524 -1.835550 -0.086390 0.163250 0.019160 0.129290 
-0.277590 17.430870 -2.963650 -2.974776 -4.987793 -1.091062 -14.791508 12.504278 3.443854 0.363466 -1.822913 -10.308196 -7.766285 3.224369 -2.866195 0.036540 3.108156 3.683257 0.058530 -0.057390 -0.197840 18.638134 -11.263312 2.961239 -1.978513 -1.213713 0.770315 5.691705 -5.034848 9.477765 -0.209971 -4.325113 3.126818 -0.021710 0.421760 -0.051280 -4.599497 0.035346 -7.652722 22.034100 -0.411898 6.801226 -18.823844 3.262461 6.940149 13.983823 -15.220276 -15.434049 -29.294507 10.792723 32.779030 5.524390 -4.332130 3.662100 -17.838530 -1.282281 2.070864 -66.391225 0.705921 -7.264498 5.156615 -20.234539 -3.059719 -3.722367 3.016559 -0.005750 0.109380 -0.310000 0.184890 -9.214103 20.968256 10.361968 -1.433071 13.000975 -10.593935 -70.736363 32.569925 -24.262903 2.541587 -1.882581 -0.102330 0.169110 0.046110 0.134260 
-0.267420 17.428060 -2.955640 -3.024718 -4.410381 -0.855487 -14.802139 12.596511 3.498275 0.443097 -1.866988 -10.583376 -7.990543 3.245531 -3.028124 0.043726 3.135263 3.679312 0.022310 -0.107230 -0.227090 18.610184 -11.205470 2.972575 -1.746661 -1.144905 0.521962 5.608813 -4.985149 9.547544 -0.186133 -4.260943 3.155070 -0.051210 0.438830 -0.060390 -4.547703 -0.222533 -7.741209 22.890600 -0.887763 7.302998 -20.502160 3.190825 5.022399 14.701540 -15.537575 -15.571735 -30.052436 11.020745 32.887928 6.069240 -4.662040 4.164770 -18.460681 0.523057 1.521295 -65.344256 2.944127 -8.430041 5.393980 -21.782030 -3.231077 -3.708715 2.999833 0.006640 0.105590 -0.322830 0.178340 -10.302622 20.077169 10.302240 -4.823569 12.191119 -9.835501 -64.625294 31.127925 -19.921662 2.617325 -1.907857 -0.118690 0.175690 0.069070 0.135870 
-0.256830 17.431580 -2.945420 -3.278675 -4.099483 -0.756597 -14.797480 12.656329 3.520912 0.705099 -1.859309 -10.628990 -7.990771 3.245877 -3.272718 0.046670 3.160632 3.675504 -0.014650 -0.149290 -0.261710 18.607025 -11.161520 2.990947 -1.298821 -1.148448 0.413107 5.367775 -4.908156 9.508888 -0.166188 -4.208250 3.182348 -0.074940 0.453930 -0.075400 -4.549983 -0.399699 -7.786457 24.234589 -1.338846 7.669071 -22.189962 3.115910 3.739671 15.253951 -15.882960 -15.814284 -30.914770 11.125673 32.896770 6.366690 -5.016660 4.451470 -18.779357 1.752024 1.214586 -64.646693 4.761317 -9.569754 5.520407 -23.603516 -3.444508 -3.690146 2.991141 0.014530 0.103430 -0.338410 0.169890 -11.270677 19.711015 10.328570 -7.958295 11.644733 -9.428102 -59.375642 28.069976 -15.982446 2.712843 -1.934286 -0.135380 0.185990 0.094330 0.137750 
-0.251970 17.431550 -2.938210 -3.400371 -3.853311 -0.713653 -14.814058 12.720796 3.541845 0.994510 -1.820662 -10.579280 -8.199802 3.292522 -3.447484 0.052787 3.218897 3.663743 -0.057930 -0.198300 -0.295910 18.585232 -11.098918 3.008904 -0.927142 -1.168668 0.402602 5.150484 -4.821772 9.272087 -0.142669 -4.163141 3.209909 -0.099990 0.476620 -0.090690 -4.495219 -0.619096 -7.836957 24.992701 -1.738239 8.068209 -23.178191 3.029096 2.823324 15.724885 -16.161015 -16.178870 -31.687926 11.242728 32.783069 6.467800 -5.214000 4.909980 -18.766990 2.630944 1.077247 -64.718568 6.235136 -10.742421 5.750046 -25.674189 -3.772922 -3.680425 2.976986 0.018370 0.110000 -0.359410 0.158530 -12.233238 19.656912 10.424473 -10.699673 11.119298 -9.285496 -55.541917 24.252972 -12.867767 2.809587 -1.943712 -0.157050 0.200090 0.122720 0.138140 
-0.245500 17.436200 -2.930770 -3.550697 -3.532474 -0.611126 -14.819766 12.787532 3.564614 1.298825 -1.793344 -10.490915 -8.340914 3.332148 -3.533212 0.074383 3.249567 3.653520 -0.071690 -0.218350 -0.303900 18.567786 -11.050415 3.041931 -0.574620 -1.170539 0.318586 5.093012 -4.742782 8.945927 -0.140774 -4.101547 3.230274 -0.120240 0.469470 -0.094470 -4.461904 -0.800571 -7.896963 25.982583 -2.075386 8.485077 -24.578990 2.985658 1.297448 16.216278 -16.433482 -16.389287 -32.372129 11.466008 33.377382 6.663490 -5.448280 4.945610 -19.307914 4.080075 0.622833 -63.761350 8.192177 -11.786470 5.531911 -27.582256 -3.876070 -3.641682 2.984036 0.032210 0.094110 -0.351950 0.154060 -12.861258 19.266344 10.575983 -12.552739 11.093150 -8.952873 -52.877156 21.204922 -10.718373 2.892794 -1.933861 -0.156220 0.197820 0.128650 0.139740 
-0.242520 17.433730 -2.921340 -3.383840 -3.371670 -0.460609 -14.845591 12.852291 3.619729 1.281800 -1.795426 -10.407935 -8.521514 3.322881 -3.925443 0.096363 3.279987 3.644866 -0.086680 -0.239450 -0.319870 18.530118 -11.003939 3.043859 -0.561300 -1.118457 0.191917 4.929598 -4.674805 8.885743 -0.128998 -4.053791 3.248943 -0.137800 0.469390 -0.097130 -4.372035 -0.999330 -7.971214 26.050882 -2.062941 8.917691 -24.960619 3.096389 -0.279445 16.457274 -16.648024 -16.490726 -32.978879 11.559843 33.882603 6.864370 -5.832320 5.250430 -19.458506 5.508390 0.218118 -63.588052 9.719575 -12.537574 5.215595 -29.135364 -3.948432 -3.617841 2.988182 0.038180 0.085930 -0.353570 0.153070 -13.286492 18.742410 10.619153 -14.794443 10.902850 -8.440001 -50.397409 18.836713 -8.949395 2.945762 -1.915056 -0.156420 0.192710 0.136090 0.143290 
-0.236010 17.427960 -2.911280 -3.519985 -2.972217 -0.215123 -14.862805 12.905460 3.640084 1.526860 -1.789848 -10.551787 -8.848069 3.375909 -3.922454 0.120014 3.304310 3.632902 -0.098100 -0.248910 -0.341220 18.506712 -10.952139 3.056611 -0.264003 -1.094559 -0.023652 4.974251 -4.624237 8.781080 -0.114789 -4.016520 3.262535 -0.147110 0.467930 -0.096990 -4.317245 -1.169094 -8.005698 26.650267 -2.163487 9.157019 -25.477240 3.061488 -1.717907 16.692197 -16.870536 -16.354704 -33.383087 11.558560 33.920141 6.871680 -6.143160 5.675360 -19.244969 7.284932 -0.292894 -63.684358 10.908213 -13.116475 4.738726 -30.902028 -3.966221 -3.600306 3.008531 0.026060 0.084460 -0.360350 0.154540 -14.126809 17.769593 10.477847 -16.484014 11.200324 -7.873912 -48.418665 16.860840 -7.648287 2.985024 -1.914089 -0.148570 0.177080 0.139600 0.151730 
-0.227250 17.426990 -2.903460 -3.840245 -2.617522 0.114988 -14.882582 12.971157 3.643543 1.798825 -1.778278 -10.651904 -8.876138 3.404196 -3.906439 0.148476 3.309185 3.635493 -0.093210 -0.244330 -0.345520 18.485598 -10.870956 3.084599 0.182294 -1.078594 -0.296806 5.166282 -4.537795 8.295226 -0.109595 -3.953291 3.291504 -0.154990 0.465890 -0.097350 -4.261906 -1.395987 -8.027432 27.602403 -2.357844 9.259832 -26.112737 2.930538 -3.154940 16.947322 -17.104811 -16.299514 -33.960601 11.751310 33.947914 7.073960 -6.369170 5.941030 -19.024148 8.901988 -0.782655 -63.910948 12.078711 -13.449836 4.582814 -31.646683 -3.912515 -3.583110 3.015221 0.019210 0.078100 -0.359130 0.164640 -14.980145 16.984745 10.401378 -17.743819 11.434233 -7.388830 -47.070737 15.569069 -6.790008 3.016394 -1.913131 -0.135790 0.168730 0.128850 0.161530 
-0.221630 17.427170 -2.895640 -4.165610 -2.494780 0.567916 -14.913108 13.054881 3.663681 2.135725 -1.788020 -10.990837 -8.946650 3.422287 -3.968648 0.168751 3.323584 3.638399 -0.111030 -0.259090 -0.373640 18.450563 -10.774842 3.110964 0.743309 -1.053547 -0.612866 5.135907 -4.402569 7.853186 -0.085751 -3.882795 3.327764 -0.165350 0.484030 -0.103660 -4.168436 -1.677506 -8.060368 28.412664 -2.495587 9.408893 -26.406437 2.821832 -4.940658 17.188520 -17.465999 -16.193842 -34.696385 12.089825 33.690556 6.997130 -6.405960 6.686860 -18.967114 10.757740 -1.346151 -64.049352 13.615359 -13.728247 4.273152 -32.263824 -3.775277 -3.585409 3.012344 0.001280 0.087150 -0.376150 0.172760 -15.636747 16.163136 10.305589 -19.077429 11.942422 -6.873344 -46.171188 14.977246 -6.258026 3.023359 -1.906157 -0.136730 0.168400 0.133830 0.173890 
